<svg width="28" height="30" viewBox="0 0 28 30" fill="none" xmlns="http://www.w3.org/2000/svg">
<path d="M1.56727 18.7688C1.62241 17.5942 1.67936 16.3826 2.53759 15C1.67942 13.6174 1.62247 12.4059 1.56727 11.2312C1.52134 10.2524 1.47376 9.24029 0.974304 8.01398C0.906101 7.84641 0.919109 7.65668 1.00958 7.5C1.10005 7.34332 1.25784 7.23721 1.43708 7.21248C2.74882 7.03189 3.64911 6.56695 4.51975 6.11742C5.56454 5.57789 6.64372 5.02096 8.2687 5.07334C9.03692 3.63879 10.0577 2.98371 11.0474 2.34861C11.8722 1.81939 12.7249 1.27213 13.5372 0.226465C13.6482 0.0836133 13.8189 0 13.9999 0C14.1809 0 14.3517 0.0836133 14.4626 0.226523C14.6784 0.504316 14.9026 0.755273 15.1479 0.993809C15.3799 1.21939 15.3852 1.59035 15.1596 1.82238C14.9341 2.05436 14.5631 2.05969 14.331 1.8341C14.2169 1.72312 14.1067 1.60992 13.9997 1.49344C13.2086 2.35418 12.404 2.87051 11.6803 3.33492C10.7354 3.94131 9.91067 4.47082 9.28413 5.66027L9.55014 6.121C9.71198 6.40125 9.61595 6.75961 9.33569 6.92139C9.24341 6.97471 9.14268 7.00002 9.04331 7.00002C8.84081 7.00002 8.64382 6.8949 8.5353 6.70693L8.26928 6.24621C6.92608 6.1943 6.05503 6.64354 5.05741 7.15869C4.29323 7.55326 3.44386 7.99189 2.30268 8.24666C2.65266 9.36228 2.69749 10.3172 2.73786 11.1763C2.79053 12.2979 2.83677 13.2768 3.55354 14.4142H4.08558C4.40913 14.4142 4.67151 14.6765 4.67151 15.0001C4.67151 15.3237 4.40913 15.5861 4.08558 15.5861H3.55348C2.83676 16.7234 2.79053 17.7023 2.73786 18.8238C2.69755 19.6829 2.65266 20.6378 2.30268 21.7535C3.44386 22.0083 4.29323 22.4469 5.05741 22.8415C6.05503 23.3566 6.92614 23.806 8.26934 23.754L8.53536 23.2932C8.6972 23.013 9.05544 22.917 9.33575 23.0788C9.616 23.2406 9.71204 23.5989 9.5502 23.8792L9.28419 24.34C9.91073 25.5294 10.7354 26.0589 11.6804 26.6653C12.4042 27.1297 13.2087 27.6461 13.9999 28.5069C14.7911 27.6461 15.5957 27.1297 16.3195 26.6653C17.2644 26.0589 18.0891 25.5294 18.7157 24.34L18.4497 23.8792C18.2878 23.599 18.3839 23.2406 18.6641 23.0788C18.9444 22.9169 19.3027 23.013 19.4645 23.2933L19.7305 23.7541C21.074 23.8062 21.9448 23.3568 22.9423 22.8416C23.7065 22.447 24.5559 22.0084 25.6971 21.7536C25.3471 20.638 25.3023 19.683 25.2619 18.8239C25.2093 17.7025 25.163 16.7235 24.4463 15.5861H23.9142C23.5906 15.5861 23.3283 15.3238 23.3283 15.0002C23.3283 14.6766 23.5906 14.4142 23.9142 14.4142H24.4463C25.163 13.2769 25.2093 12.2979 25.2619 11.1765C25.3023 10.3174 25.3471 9.36246 25.6971 8.24678C24.5559 7.99201 23.7065 7.55344 22.9423 7.15881C21.9447 6.64365 21.0737 6.1943 19.7305 6.24633L19.4644 6.70705C19.3559 6.89502 19.159 7.00014 18.9565 7.00014C18.8571 7.00014 18.7563 6.97477 18.6641 6.9215C18.3838 6.75973 18.2878 6.40137 18.4496 6.12111L18.7157 5.66027C18.605 5.4498 18.486 5.25521 18.3551 5.07164C18.1673 4.80814 18.2286 4.44223 18.4921 4.25443C18.7556 4.06658 19.1216 4.12793 19.3093 4.39143C19.4626 4.60641 19.6021 4.83176 19.7313 5.07346C21.3573 5.02201 22.4353 5.57807 23.48 6.11754C24.3507 6.56713 25.251 7.03207 26.5627 7.21266C26.742 7.23732 26.8998 7.34344 26.9902 7.50018C27.0807 7.65686 27.0937 7.84658 27.0254 8.01416C26.526 9.24047 26.4785 10.2526 26.4325 11.2314C26.3773 12.4061 26.3204 13.6177 25.4622 15.0002C26.3204 16.3828 26.3773 17.5943 26.4325 18.7689C26.4784 19.7477 26.526 20.7599 27.0254 21.9862C27.0937 22.1538 27.0807 22.3435 26.9902 22.5002C26.8998 22.6569 26.742 22.763 26.5627 22.7877C25.251 22.9683 24.3507 23.4332 23.48 23.8828C22.4352 24.4223 21.3568 24.9791 19.731 24.9268C18.9628 26.3614 17.942 27.0165 16.9524 27.6516C16.1276 28.1808 15.2749 28.728 14.4626 29.7737C14.3516 29.9166 14.1809 30.0002 13.9999 30.0002C13.819 30.0002 13.6482 29.9166 13.5372 29.7737C12.7249 28.728 11.8722 28.1808 11.0474 27.6516C10.0577 27.0165 9.03692 26.3614 8.2687 24.9268C6.64342 24.979 5.5646 24.4223 4.51975 23.8828C3.64911 23.4332 2.74876 22.9683 1.43708 22.7877C1.25784 22.763 1.10005 22.6569 1.00958 22.5002C0.919109 22.3434 0.906101 22.1538 0.974304 21.9862C1.47376 20.7597 1.52134 19.7476 1.56727 18.7688Z" fill="#FFD4CE"/>
</svg>
